<mxfile host="app.diagrams.net" modified="2022-08-09T05:54:00.503Z" agent="5.0 (Windows NT 10.0; Win64; x64) AppleWebKit/537.36 (KHTML, like Gecko) Chrome/104.0.5112.81 Safari/537.36 Edg/104.0.1293.47" etag="Rmjvcxzunu-_etU2LioQ" version="20.1.1" type="github" pages="3">
  <diagram id="6duA1uSMdmndYWGt7eCN" name="Route &amp; Lines">
    <mxGraphModel dx="2062" dy="1146" grid="0" gridSize="10" guides="1" tooltips="1" connect="1" arrows="1" fold="1" page="1" pageScale="1" pageWidth="100000" pageHeight="100000" background="#000000" math="0" shadow="0">
      <root>
        <mxCell id="0" />
        <mxCell id="1" parent="0" />
        <mxCell id="z4yi9fR-iadnpEJnsJKe-28" value="" style="rounded=0;whiteSpace=wrap;html=1;dashed=1;fontSize=16;dashPattern=1 2;" parent="1" vertex="1">
          <mxGeometry x="560" y="99" width="300" height="805" as="geometry" />
        </mxCell>
        <mxCell id="z4yi9fR-iadnpEJnsJKe-29" value="" style="rounded=0;whiteSpace=wrap;html=1;dashed=1;" parent="1" vertex="1">
          <mxGeometry x="585" y="138" width="255" height="380" as="geometry" />
        </mxCell>
        <mxCell id="z4yi9fR-iadnpEJnsJKe-30" value="" style="edgeStyle=orthogonalEdgeStyle;rounded=0;orthogonalLoop=1;jettySize=auto;html=1;" parent="1" source="z4yi9fR-iadnpEJnsJKe-31" target="z4yi9fR-iadnpEJnsJKe-33" edge="1">
          <mxGeometry relative="1" as="geometry" />
        </mxCell>
        <mxCell id="z4yi9fR-iadnpEJnsJKe-31" value="Printer" style="rounded=1;whiteSpace=wrap;html=1;fontSize=16;" parent="1" vertex="1">
          <mxGeometry x="650" y="160" width="120" height="40" as="geometry" />
        </mxCell>
        <mxCell id="z4yi9fR-iadnpEJnsJKe-32" value="" style="edgeStyle=orthogonalEdgeStyle;rounded=0;orthogonalLoop=1;jettySize=auto;html=1;" parent="1" source="z4yi9fR-iadnpEJnsJKe-33" target="z4yi9fR-iadnpEJnsJKe-35" edge="1">
          <mxGeometry relative="1" as="geometry" />
        </mxCell>
        <mxCell id="z4yi9fR-iadnpEJnsJKe-33" value="SPI" style="whiteSpace=wrap;html=1;rounded=1;fontSize=16;" parent="1" vertex="1">
          <mxGeometry x="650" y="220" width="120" height="40" as="geometry" />
        </mxCell>
        <mxCell id="z4yi9fR-iadnpEJnsJKe-34" value="" style="edgeStyle=orthogonalEdgeStyle;rounded=0;orthogonalLoop=1;jettySize=auto;html=1;" parent="1" source="z4yi9fR-iadnpEJnsJKe-35" target="z4yi9fR-iadnpEJnsJKe-37" edge="1">
          <mxGeometry relative="1" as="geometry" />
        </mxCell>
        <mxCell id="OaSJKc2FD3M6Q3dSnDNx-2" style="edgeStyle=orthogonalEdgeStyle;rounded=0;orthogonalLoop=1;jettySize=auto;html=1;exitX=1;exitY=0.5;exitDx=0;exitDy=0;entryX=1;entryY=0.5;entryDx=0;entryDy=0;fontSize=16;fontColor=none;" parent="1" source="z4yi9fR-iadnpEJnsJKe-35" target="z4yi9fR-iadnpEJnsJKe-31" edge="1">
          <mxGeometry relative="1" as="geometry" />
        </mxCell>
        <mxCell id="OaSJKc2FD3M6Q3dSnDNx-3" value="&lt;font color=&quot;#ffffff&quot;&gt;Rework&lt;/font&gt;" style="edgeLabel;html=1;align=center;verticalAlign=middle;resizable=0;points=[];fontSize=16;fontColor=none;" parent="OaSJKc2FD3M6Q3dSnDNx-2" vertex="1" connectable="0">
          <mxGeometry x="0.175" relative="1" as="geometry">
            <mxPoint x="13" y="14" as="offset" />
          </mxGeometry>
        </mxCell>
        <mxCell id="z4yi9fR-iadnpEJnsJKe-35" value="SIPLACE" style="whiteSpace=wrap;html=1;rounded=1;fontSize=16;" parent="1" vertex="1">
          <mxGeometry x="650" y="280" width="120" height="40" as="geometry" />
        </mxCell>
        <mxCell id="z4yi9fR-iadnpEJnsJKe-36" value="" style="edgeStyle=orthogonalEdgeStyle;rounded=0;orthogonalLoop=1;jettySize=auto;html=1;" parent="1" source="z4yi9fR-iadnpEJnsJKe-37" target="z4yi9fR-iadnpEJnsJKe-39" edge="1">
          <mxGeometry relative="1" as="geometry" />
        </mxCell>
        <mxCell id="z4yi9fR-iadnpEJnsJKe-37" value="VI" style="whiteSpace=wrap;html=1;rounded=1;fontSize=16;" parent="1" vertex="1">
          <mxGeometry x="650" y="340" width="120" height="40" as="geometry" />
        </mxCell>
        <mxCell id="z4yi9fR-iadnpEJnsJKe-38" value="" style="edgeStyle=orthogonalEdgeStyle;rounded=0;orthogonalLoop=1;jettySize=auto;html=1;" parent="1" source="z4yi9fR-iadnpEJnsJKe-39" target="z4yi9fR-iadnpEJnsJKe-41" edge="1">
          <mxGeometry relative="1" as="geometry" />
        </mxCell>
        <mxCell id="z4yi9fR-iadnpEJnsJKe-39" value="REFLOW" style="whiteSpace=wrap;html=1;rounded=1;fontSize=16;" parent="1" vertex="1">
          <mxGeometry x="650" y="400" width="120" height="40" as="geometry" />
        </mxCell>
        <mxCell id="z4yi9fR-iadnpEJnsJKe-40" value="" style="edgeStyle=orthogonalEdgeStyle;rounded=0;orthogonalLoop=1;jettySize=auto;html=1;" parent="1" source="z4yi9fR-iadnpEJnsJKe-41" target="z4yi9fR-iadnpEJnsJKe-44" edge="1">
          <mxGeometry relative="1" as="geometry" />
        </mxCell>
        <mxCell id="z4yi9fR-iadnpEJnsJKe-41" value="AOI" style="whiteSpace=wrap;html=1;rounded=1;fontSize=16;" parent="1" vertex="1">
          <mxGeometry x="650" y="460" width="120" height="40" as="geometry" />
        </mxCell>
        <mxCell id="z4yi9fR-iadnpEJnsJKe-42" value="SMT" style="text;html=1;strokeColor=none;fillColor=none;align=center;verticalAlign=middle;whiteSpace=wrap;rounded=0;dashed=1;fontSize=16;" parent="1" vertex="1">
          <mxGeometry x="688" y="117" width="40" height="20" as="geometry" />
        </mxCell>
        <mxCell id="z4yi9fR-iadnpEJnsJKe-43" value="" style="edgeStyle=orthogonalEdgeStyle;rounded=0;orthogonalLoop=1;jettySize=auto;html=1;" parent="1" source="z4yi9fR-iadnpEJnsJKe-44" target="z4yi9fR-iadnpEJnsJKe-46" edge="1">
          <mxGeometry relative="1" as="geometry" />
        </mxCell>
        <mxCell id="z4yi9fR-iadnpEJnsJKe-44" value="DEPANEL" style="whiteSpace=wrap;html=1;rounded=1;fontSize=16;" parent="1" vertex="1">
          <mxGeometry x="650" y="540" width="120" height="40" as="geometry" />
        </mxCell>
        <mxCell id="z4yi9fR-iadnpEJnsJKe-45" value="" style="edgeStyle=orthogonalEdgeStyle;rounded=0;orthogonalLoop=1;jettySize=auto;html=1;" parent="1" source="z4yi9fR-iadnpEJnsJKe-46" target="z4yi9fR-iadnpEJnsJKe-48" edge="1">
          <mxGeometry relative="1" as="geometry" />
        </mxCell>
        <mxCell id="z4yi9fR-iadnpEJnsJKe-46" value="SPD" style="whiteSpace=wrap;html=1;rounded=1;fontSize=16;" parent="1" vertex="1">
          <mxGeometry x="650" y="600" width="120" height="40" as="geometry" />
        </mxCell>
        <mxCell id="z4yi9fR-iadnpEJnsJKe-47" value="" style="edgeStyle=orthogonalEdgeStyle;rounded=0;orthogonalLoop=1;jettySize=auto;html=1;" parent="1" source="z4yi9fR-iadnpEJnsJKe-48" target="z4yi9fR-iadnpEJnsJKe-50" edge="1">
          <mxGeometry relative="1" as="geometry" />
        </mxCell>
        <mxCell id="OaSJKc2FD3M6Q3dSnDNx-4" style="edgeStyle=orthogonalEdgeStyle;rounded=0;orthogonalLoop=1;jettySize=auto;html=1;exitX=1;exitY=0.5;exitDx=0;exitDy=0;entryX=1;entryY=0.5;entryDx=0;entryDy=0;fontSize=16;fontColor=none;" parent="1" source="z4yi9fR-iadnpEJnsJKe-48" target="z4yi9fR-iadnpEJnsJKe-46" edge="1">
          <mxGeometry relative="1" as="geometry" />
        </mxCell>
        <mxCell id="OaSJKc2FD3M6Q3dSnDNx-5" value="&lt;font color=&quot;#ffffff&quot;&gt;Rework&lt;/font&gt;" style="edgeLabel;html=1;align=center;verticalAlign=middle;resizable=0;points=[];fontSize=16;fontColor=none;" parent="OaSJKc2FD3M6Q3dSnDNx-4" vertex="1" connectable="0">
          <mxGeometry x="0.32" y="1" relative="1" as="geometry">
            <mxPoint x="21" y="17" as="offset" />
          </mxGeometry>
        </mxCell>
        <mxCell id="z4yi9fR-iadnpEJnsJKe-48" value="TESTING" style="whiteSpace=wrap;html=1;rounded=1;fontSize=16;" parent="1" vertex="1">
          <mxGeometry x="650" y="660" width="120" height="40" as="geometry" />
        </mxCell>
        <mxCell id="z4yi9fR-iadnpEJnsJKe-49" value="" style="edgeStyle=orthogonalEdgeStyle;rounded=0;orthogonalLoop=1;jettySize=auto;html=1;" parent="1" source="z4yi9fR-iadnpEJnsJKe-50" target="z4yi9fR-iadnpEJnsJKe-52" edge="1">
          <mxGeometry relative="1" as="geometry" />
        </mxCell>
        <mxCell id="z4yi9fR-iadnpEJnsJKe-50" value="PRO_VI" style="whiteSpace=wrap;html=1;rounded=1;fontSize=16;" parent="1" vertex="1">
          <mxGeometry x="650" y="720" width="120" height="40" as="geometry" />
        </mxCell>
        <mxCell id="z4yi9fR-iadnpEJnsJKe-51" value="" style="edgeStyle=orthogonalEdgeStyle;rounded=0;orthogonalLoop=1;jettySize=auto;html=1;" parent="1" source="z4yi9fR-iadnpEJnsJKe-52" target="z4yi9fR-iadnpEJnsJKe-53" edge="1">
          <mxGeometry relative="1" as="geometry" />
        </mxCell>
        <mxCell id="z4yi9fR-iadnpEJnsJKe-52" value="QA" style="whiteSpace=wrap;html=1;rounded=1;fontSize=16;" parent="1" vertex="1">
          <mxGeometry x="650" y="780" width="120" height="40" as="geometry" />
        </mxCell>
        <mxCell id="z4yi9fR-iadnpEJnsJKe-53" value="PACKING" style="whiteSpace=wrap;html=1;rounded=1;fontSize=16;" parent="1" vertex="1">
          <mxGeometry x="650" y="840" width="120" height="40" as="geometry" />
        </mxCell>
        <mxCell id="z4yi9fR-iadnpEJnsJKe-54" value="LINE 2" style="text;html=1;strokeColor=none;fillColor=none;align=center;verticalAlign=middle;whiteSpace=wrap;rounded=0;dashed=1;fontSize=16;" parent="1" vertex="1">
          <mxGeometry x="682.5" y="79" width="60" height="20" as="geometry" />
        </mxCell>
        <mxCell id="OaSJKc2FD3M6Q3dSnDNx-6" value="" style="rounded=0;whiteSpace=wrap;html=1;dashed=1;fontSize=16;dashPattern=1 2;" parent="1" vertex="1">
          <mxGeometry x="226" y="99" width="300" height="805" as="geometry" />
        </mxCell>
        <mxCell id="OaSJKc2FD3M6Q3dSnDNx-7" value="" style="rounded=0;whiteSpace=wrap;html=1;dashed=1;" parent="1" vertex="1">
          <mxGeometry x="251" y="138" width="255" height="380" as="geometry" />
        </mxCell>
        <mxCell id="OaSJKc2FD3M6Q3dSnDNx-8" value="" style="edgeStyle=orthogonalEdgeStyle;rounded=0;orthogonalLoop=1;jettySize=auto;html=1;" parent="1" source="OaSJKc2FD3M6Q3dSnDNx-9" target="OaSJKc2FD3M6Q3dSnDNx-11" edge="1">
          <mxGeometry relative="1" as="geometry" />
        </mxCell>
        <mxCell id="OaSJKc2FD3M6Q3dSnDNx-9" value="Printer" style="rounded=1;whiteSpace=wrap;html=1;fontSize=16;" parent="1" vertex="1">
          <mxGeometry x="316" y="160" width="120" height="40" as="geometry" />
        </mxCell>
        <mxCell id="OaSJKc2FD3M6Q3dSnDNx-10" value="" style="edgeStyle=orthogonalEdgeStyle;rounded=0;orthogonalLoop=1;jettySize=auto;html=1;" parent="1" source="OaSJKc2FD3M6Q3dSnDNx-11" target="OaSJKc2FD3M6Q3dSnDNx-15" edge="1">
          <mxGeometry relative="1" as="geometry" />
        </mxCell>
        <mxCell id="OaSJKc2FD3M6Q3dSnDNx-11" value="SPI" style="whiteSpace=wrap;html=1;rounded=1;fontSize=16;" parent="1" vertex="1">
          <mxGeometry x="316" y="220" width="120" height="40" as="geometry" />
        </mxCell>
        <mxCell id="OaSJKc2FD3M6Q3dSnDNx-12" value="" style="edgeStyle=orthogonalEdgeStyle;rounded=0;orthogonalLoop=1;jettySize=auto;html=1;" parent="1" source="OaSJKc2FD3M6Q3dSnDNx-15" target="OaSJKc2FD3M6Q3dSnDNx-17" edge="1">
          <mxGeometry relative="1" as="geometry" />
        </mxCell>
        <mxCell id="OaSJKc2FD3M6Q3dSnDNx-13" style="edgeStyle=orthogonalEdgeStyle;rounded=0;orthogonalLoop=1;jettySize=auto;html=1;exitX=1;exitY=0.5;exitDx=0;exitDy=0;entryX=1;entryY=0.5;entryDx=0;entryDy=0;fontSize=16;fontColor=none;" parent="1" source="OaSJKc2FD3M6Q3dSnDNx-15" target="OaSJKc2FD3M6Q3dSnDNx-9" edge="1">
          <mxGeometry relative="1" as="geometry" />
        </mxCell>
        <mxCell id="OaSJKc2FD3M6Q3dSnDNx-14" value="&lt;font color=&quot;#ffffff&quot;&gt;Rework&lt;/font&gt;" style="edgeLabel;html=1;align=center;verticalAlign=middle;resizable=0;points=[];fontSize=16;fontColor=none;" parent="OaSJKc2FD3M6Q3dSnDNx-13" vertex="1" connectable="0">
          <mxGeometry x="0.175" relative="1" as="geometry">
            <mxPoint x="13" y="14" as="offset" />
          </mxGeometry>
        </mxCell>
        <mxCell id="OaSJKc2FD3M6Q3dSnDNx-15" value="SIPLACE" style="whiteSpace=wrap;html=1;rounded=1;fontSize=16;" parent="1" vertex="1">
          <mxGeometry x="316" y="280" width="120" height="40" as="geometry" />
        </mxCell>
        <mxCell id="OaSJKc2FD3M6Q3dSnDNx-16" value="" style="edgeStyle=orthogonalEdgeStyle;rounded=0;orthogonalLoop=1;jettySize=auto;html=1;" parent="1" source="OaSJKc2FD3M6Q3dSnDNx-17" target="OaSJKc2FD3M6Q3dSnDNx-19" edge="1">
          <mxGeometry relative="1" as="geometry" />
        </mxCell>
        <mxCell id="OaSJKc2FD3M6Q3dSnDNx-17" value="VI" style="whiteSpace=wrap;html=1;rounded=1;fontSize=16;" parent="1" vertex="1">
          <mxGeometry x="316" y="340" width="120" height="40" as="geometry" />
        </mxCell>
        <mxCell id="OaSJKc2FD3M6Q3dSnDNx-18" value="" style="edgeStyle=orthogonalEdgeStyle;rounded=0;orthogonalLoop=1;jettySize=auto;html=1;" parent="1" source="OaSJKc2FD3M6Q3dSnDNx-19" target="OaSJKc2FD3M6Q3dSnDNx-21" edge="1">
          <mxGeometry relative="1" as="geometry" />
        </mxCell>
        <mxCell id="OaSJKc2FD3M6Q3dSnDNx-19" value="REFLOW" style="whiteSpace=wrap;html=1;rounded=1;fontSize=16;" parent="1" vertex="1">
          <mxGeometry x="316" y="400" width="120" height="40" as="geometry" />
        </mxCell>
        <mxCell id="OaSJKc2FD3M6Q3dSnDNx-20" value="" style="edgeStyle=orthogonalEdgeStyle;rounded=0;orthogonalLoop=1;jettySize=auto;html=1;" parent="1" source="OaSJKc2FD3M6Q3dSnDNx-21" target="OaSJKc2FD3M6Q3dSnDNx-24" edge="1">
          <mxGeometry relative="1" as="geometry" />
        </mxCell>
        <mxCell id="OaSJKc2FD3M6Q3dSnDNx-21" value="AOI" style="whiteSpace=wrap;html=1;rounded=1;fontSize=16;" parent="1" vertex="1">
          <mxGeometry x="316" y="460" width="120" height="40" as="geometry" />
        </mxCell>
        <mxCell id="OaSJKc2FD3M6Q3dSnDNx-22" value="SMT" style="text;html=1;strokeColor=none;fillColor=none;align=center;verticalAlign=middle;whiteSpace=wrap;rounded=0;dashed=1;fontSize=16;" parent="1" vertex="1">
          <mxGeometry x="354" y="117" width="40" height="20" as="geometry" />
        </mxCell>
        <mxCell id="OaSJKc2FD3M6Q3dSnDNx-23" value="" style="edgeStyle=orthogonalEdgeStyle;rounded=0;orthogonalLoop=1;jettySize=auto;html=1;" parent="1" source="OaSJKc2FD3M6Q3dSnDNx-24" target="OaSJKc2FD3M6Q3dSnDNx-26" edge="1">
          <mxGeometry relative="1" as="geometry" />
        </mxCell>
        <mxCell id="OaSJKc2FD3M6Q3dSnDNx-24" value="DEPANEL" style="whiteSpace=wrap;html=1;rounded=1;fontSize=16;" parent="1" vertex="1">
          <mxGeometry x="316" y="540" width="120" height="40" as="geometry" />
        </mxCell>
        <mxCell id="OaSJKc2FD3M6Q3dSnDNx-25" value="" style="edgeStyle=orthogonalEdgeStyle;rounded=0;orthogonalLoop=1;jettySize=auto;html=1;" parent="1" source="OaSJKc2FD3M6Q3dSnDNx-26" target="OaSJKc2FD3M6Q3dSnDNx-30" edge="1">
          <mxGeometry relative="1" as="geometry" />
        </mxCell>
        <mxCell id="OaSJKc2FD3M6Q3dSnDNx-26" value="SPD" style="whiteSpace=wrap;html=1;rounded=1;fontSize=16;" parent="1" vertex="1">
          <mxGeometry x="316" y="600" width="120" height="40" as="geometry" />
        </mxCell>
        <mxCell id="OaSJKc2FD3M6Q3dSnDNx-27" value="" style="edgeStyle=orthogonalEdgeStyle;rounded=0;orthogonalLoop=1;jettySize=auto;html=1;" parent="1" source="OaSJKc2FD3M6Q3dSnDNx-30" target="OaSJKc2FD3M6Q3dSnDNx-32" edge="1">
          <mxGeometry relative="1" as="geometry" />
        </mxCell>
        <mxCell id="OaSJKc2FD3M6Q3dSnDNx-28" style="edgeStyle=orthogonalEdgeStyle;rounded=0;orthogonalLoop=1;jettySize=auto;html=1;exitX=1;exitY=0.5;exitDx=0;exitDy=0;entryX=1;entryY=0.5;entryDx=0;entryDy=0;fontSize=16;fontColor=none;" parent="1" source="OaSJKc2FD3M6Q3dSnDNx-30" target="OaSJKc2FD3M6Q3dSnDNx-26" edge="1">
          <mxGeometry relative="1" as="geometry" />
        </mxCell>
        <mxCell id="OaSJKc2FD3M6Q3dSnDNx-29" value="&lt;font color=&quot;#ffffff&quot;&gt;Rework&lt;/font&gt;" style="edgeLabel;html=1;align=center;verticalAlign=middle;resizable=0;points=[];fontSize=16;fontColor=none;" parent="OaSJKc2FD3M6Q3dSnDNx-28" vertex="1" connectable="0">
          <mxGeometry x="0.32" y="1" relative="1" as="geometry">
            <mxPoint x="21" y="17" as="offset" />
          </mxGeometry>
        </mxCell>
        <mxCell id="OaSJKc2FD3M6Q3dSnDNx-30" value="TESTING" style="whiteSpace=wrap;html=1;rounded=1;fontSize=16;" parent="1" vertex="1">
          <mxGeometry x="316" y="660" width="120" height="40" as="geometry" />
        </mxCell>
        <mxCell id="OaSJKc2FD3M6Q3dSnDNx-31" value="" style="edgeStyle=orthogonalEdgeStyle;rounded=0;orthogonalLoop=1;jettySize=auto;html=1;" parent="1" source="OaSJKc2FD3M6Q3dSnDNx-32" target="OaSJKc2FD3M6Q3dSnDNx-34" edge="1">
          <mxGeometry relative="1" as="geometry" />
        </mxCell>
        <mxCell id="OaSJKc2FD3M6Q3dSnDNx-32" value="PRO_VI" style="whiteSpace=wrap;html=1;rounded=1;fontSize=16;" parent="1" vertex="1">
          <mxGeometry x="316" y="720" width="120" height="40" as="geometry" />
        </mxCell>
        <mxCell id="OaSJKc2FD3M6Q3dSnDNx-33" value="" style="edgeStyle=orthogonalEdgeStyle;rounded=0;orthogonalLoop=1;jettySize=auto;html=1;" parent="1" source="OaSJKc2FD3M6Q3dSnDNx-34" target="OaSJKc2FD3M6Q3dSnDNx-35" edge="1">
          <mxGeometry relative="1" as="geometry" />
        </mxCell>
        <mxCell id="OaSJKc2FD3M6Q3dSnDNx-34" value="QA" style="whiteSpace=wrap;html=1;rounded=1;fontSize=16;" parent="1" vertex="1">
          <mxGeometry x="316" y="780" width="120" height="40" as="geometry" />
        </mxCell>
        <mxCell id="OaSJKc2FD3M6Q3dSnDNx-35" value="PACKING" style="whiteSpace=wrap;html=1;rounded=1;fontSize=16;" parent="1" vertex="1">
          <mxGeometry x="316" y="840" width="120" height="40" as="geometry" />
        </mxCell>
        <mxCell id="OaSJKc2FD3M6Q3dSnDNx-36" value="LINE 1" style="text;html=1;strokeColor=none;fillColor=none;align=center;verticalAlign=middle;whiteSpace=wrap;rounded=0;dashed=1;fontSize=16;" parent="1" vertex="1">
          <mxGeometry x="348.5" y="79" width="60" height="20" as="geometry" />
        </mxCell>
      </root>
    </mxGraphModel>
  </diagram>
  <diagram id="d906zBtjWqWZmlAAoWmq" name="WO LOT PANEL PIECE">
    <mxGraphModel dx="2708" dy="1522" grid="0" gridSize="10" guides="1" tooltips="1" connect="1" arrows="1" fold="1" page="1" pageScale="1" pageWidth="100000" pageHeight="100000" math="0" shadow="0">
      <root>
        <mxCell id="wUC67vCHg1ev2IUdutJq-0" />
        <mxCell id="wUC67vCHg1ev2IUdutJq-1" parent="wUC67vCHg1ev2IUdutJq-0" />
        <mxCell id="wUC67vCHg1ev2IUdutJq-8" value="Lot 1" style="swimlane;fontSize=16;" parent="wUC67vCHg1ev2IUdutJq-1" vertex="1">
          <mxGeometry x="170" y="280" width="300" height="220" as="geometry" />
        </mxCell>
        <mxCell id="wUC67vCHg1ev2IUdutJq-9" value="Panel 1" style="rounded=0;whiteSpace=wrap;html=1;fontSize=16;" parent="wUC67vCHg1ev2IUdutJq-8" vertex="1">
          <mxGeometry x="20" y="50" width="120" height="60" as="geometry" />
        </mxCell>
        <mxCell id="wUC67vCHg1ev2IUdutJq-10" value="Panel 2" style="rounded=0;whiteSpace=wrap;html=1;fontSize=16;" parent="wUC67vCHg1ev2IUdutJq-8" vertex="1">
          <mxGeometry x="160" y="50" width="120" height="60" as="geometry" />
        </mxCell>
        <mxCell id="wUC67vCHg1ev2IUdutJq-11" value="Panel 3" style="rounded=0;whiteSpace=wrap;html=1;fontSize=16;" parent="wUC67vCHg1ev2IUdutJq-8" vertex="1">
          <mxGeometry x="20" y="130" width="120" height="60" as="geometry" />
        </mxCell>
        <mxCell id="YA2wbJyzF00wrWX5y32e-5" value="Lot 2" style="swimlane;fontSize=16;" parent="wUC67vCHg1ev2IUdutJq-1" vertex="1">
          <mxGeometry x="503" y="280" width="300" height="220" as="geometry" />
        </mxCell>
        <mxCell id="YA2wbJyzF00wrWX5y32e-6" value="Panel 1" style="rounded=0;whiteSpace=wrap;html=1;fontSize=16;" parent="YA2wbJyzF00wrWX5y32e-5" vertex="1">
          <mxGeometry x="20" y="50" width="120" height="60" as="geometry" />
        </mxCell>
        <mxCell id="YA2wbJyzF00wrWX5y32e-7" value="Panel 2" style="rounded=0;whiteSpace=wrap;html=1;fontSize=16;" parent="YA2wbJyzF00wrWX5y32e-5" vertex="1">
          <mxGeometry x="160" y="50" width="120" height="60" as="geometry" />
        </mxCell>
        <mxCell id="YA2wbJyzF00wrWX5y32e-8" value="Panel 3" style="rounded=0;whiteSpace=wrap;html=1;fontSize=16;" parent="YA2wbJyzF00wrWX5y32e-5" vertex="1">
          <mxGeometry x="20" y="130" width="120" height="60" as="geometry" />
        </mxCell>
        <mxCell id="YA2wbJyzF00wrWX5y32e-11" value="Work Order A" style="swimlane;fontSize=16;" parent="wUC67vCHg1ev2IUdutJq-1" vertex="1">
          <mxGeometry x="150" y="236" width="678" height="296" as="geometry">
            <mxRectangle x="150" y="236" width="138" height="31" as="alternateBounds" />
          </mxGeometry>
        </mxCell>
        <mxCell id="PJ1qup9xhohrxMHTWOED-1" value="&lt;font style=&quot;font-size: 28px;&quot;&gt;...&lt;/font&gt;" style="text;html=1;align=center;verticalAlign=middle;resizable=0;points=[];autosize=1;strokeColor=none;fillColor=none;fontColor=#000000;" vertex="1" parent="YA2wbJyzF00wrWX5y32e-11">
          <mxGeometry x="552" y="174" width="41" height="46" as="geometry" />
        </mxCell>
        <mxCell id="PJ1qup9xhohrxMHTWOED-0" value="&lt;font style=&quot;font-size: 28px;&quot;&gt;...&lt;/font&gt;" style="text;html=1;align=center;verticalAlign=middle;resizable=0;points=[];autosize=1;strokeColor=none;fillColor=none;fontColor=#000000;" vertex="1" parent="YA2wbJyzF00wrWX5y32e-11">
          <mxGeometry x="216.5" y="174" width="41" height="46" as="geometry" />
        </mxCell>
        <mxCell id="YA2wbJyzF00wrWX5y32e-16" value="SMT" style="text;html=1;strokeColor=none;fillColor=none;align=center;verticalAlign=middle;whiteSpace=wrap;rounded=0;fontSize=23;" parent="wUC67vCHg1ev2IUdutJq-1" vertex="1">
          <mxGeometry x="450" y="196" width="60" height="30" as="geometry" />
        </mxCell>
        <mxCell id="YA2wbJyzF00wrWX5y32e-17" value="Lot 1" style="swimlane;fontSize=16;" parent="wUC67vCHg1ev2IUdutJq-1" vertex="1">
          <mxGeometry x="167" y="686" width="300" height="220" as="geometry" />
        </mxCell>
        <mxCell id="YA2wbJyzF00wrWX5y32e-22" value="Lot 2" style="swimlane;fontSize=16;" parent="wUC67vCHg1ev2IUdutJq-1" vertex="1">
          <mxGeometry x="500" y="686" width="300" height="220" as="geometry" />
        </mxCell>
        <mxCell id="YA2wbJyzF00wrWX5y32e-27" value="Work Order A" style="swimlane;fontSize=16;" parent="wUC67vCHg1ev2IUdutJq-1" vertex="1">
          <mxGeometry x="147" y="642" width="678" height="296" as="geometry">
            <mxRectangle x="150" y="236" width="138" height="31" as="alternateBounds" />
          </mxGeometry>
        </mxCell>
        <mxCell id="YA2wbJyzF00wrWX5y32e-29" value="&lt;font style=&quot;font-size: 16px&quot;&gt;PIECE 1&lt;/font&gt;" style="rounded=0;whiteSpace=wrap;html=1;sketch=0;fontSize=24;fontColor=none;" parent="YA2wbJyzF00wrWX5y32e-27" vertex="1">
          <mxGeometry x="40" y="84" width="120" height="30" as="geometry" />
        </mxCell>
        <mxCell id="YA2wbJyzF00wrWX5y32e-30" value="&lt;font style=&quot;font-size: 16px&quot;&gt;PIECE 2&lt;/font&gt;" style="rounded=0;whiteSpace=wrap;html=1;sketch=0;fontSize=24;fontColor=none;" parent="YA2wbJyzF00wrWX5y32e-27" vertex="1">
          <mxGeometry x="40" y="124" width="120" height="30" as="geometry" />
        </mxCell>
        <mxCell id="YA2wbJyzF00wrWX5y32e-31" value="&lt;font style=&quot;font-size: 16px&quot;&gt;PIECE 3&lt;/font&gt;" style="rounded=0;whiteSpace=wrap;html=1;sketch=0;fontSize=24;fontColor=none;" parent="YA2wbJyzF00wrWX5y32e-27" vertex="1">
          <mxGeometry x="180" y="84" width="120" height="30" as="geometry" />
        </mxCell>
        <mxCell id="YA2wbJyzF00wrWX5y32e-32" value="&lt;font style=&quot;font-size: 16px&quot;&gt;PIECE 4&lt;/font&gt;" style="rounded=0;whiteSpace=wrap;html=1;sketch=0;fontSize=24;fontColor=none;" parent="YA2wbJyzF00wrWX5y32e-27" vertex="1">
          <mxGeometry x="180" y="124" width="120" height="30" as="geometry" />
        </mxCell>
        <mxCell id="YA2wbJyzF00wrWX5y32e-33" value="&lt;font style=&quot;font-size: 16px&quot;&gt;PIECE 5&lt;/font&gt;" style="rounded=0;whiteSpace=wrap;html=1;sketch=0;fontSize=24;fontColor=none;" parent="YA2wbJyzF00wrWX5y32e-27" vertex="1">
          <mxGeometry x="40" y="184" width="120" height="30" as="geometry" />
        </mxCell>
        <mxCell id="YA2wbJyzF00wrWX5y32e-34" value="&lt;font style=&quot;font-size: 16px&quot;&gt;PIECE 6&lt;/font&gt;" style="rounded=0;whiteSpace=wrap;html=1;sketch=0;fontSize=24;fontColor=none;" parent="YA2wbJyzF00wrWX5y32e-27" vertex="1">
          <mxGeometry x="40" y="224" width="120" height="30" as="geometry" />
        </mxCell>
        <mxCell id="YA2wbJyzF00wrWX5y32e-35" value="&lt;font style=&quot;font-size: 16px&quot;&gt;PIECE 1&lt;/font&gt;" style="rounded=0;whiteSpace=wrap;html=1;sketch=0;fontSize=24;fontColor=none;" parent="YA2wbJyzF00wrWX5y32e-27" vertex="1">
          <mxGeometry x="373" y="84" width="120" height="30" as="geometry" />
        </mxCell>
        <mxCell id="YA2wbJyzF00wrWX5y32e-36" value="&lt;font style=&quot;font-size: 16px&quot;&gt;PIECE 2&lt;/font&gt;" style="rounded=0;whiteSpace=wrap;html=1;sketch=0;fontSize=24;fontColor=none;" parent="YA2wbJyzF00wrWX5y32e-27" vertex="1">
          <mxGeometry x="373" y="124" width="120" height="30" as="geometry" />
        </mxCell>
        <mxCell id="YA2wbJyzF00wrWX5y32e-37" value="&lt;font style=&quot;font-size: 16px&quot;&gt;PIECE 3&lt;/font&gt;" style="rounded=0;whiteSpace=wrap;html=1;sketch=0;fontSize=24;fontColor=none;" parent="YA2wbJyzF00wrWX5y32e-27" vertex="1">
          <mxGeometry x="513" y="84" width="120" height="30" as="geometry" />
        </mxCell>
        <mxCell id="YA2wbJyzF00wrWX5y32e-38" value="&lt;font style=&quot;font-size: 16px&quot;&gt;PIECE 4&lt;/font&gt;" style="rounded=0;whiteSpace=wrap;html=1;sketch=0;fontSize=24;fontColor=none;" parent="YA2wbJyzF00wrWX5y32e-27" vertex="1">
          <mxGeometry x="513" y="124" width="120" height="30" as="geometry" />
        </mxCell>
        <mxCell id="YA2wbJyzF00wrWX5y32e-39" value="&lt;font style=&quot;font-size: 16px&quot;&gt;PIECE 5&lt;/font&gt;" style="rounded=0;whiteSpace=wrap;html=1;sketch=0;fontSize=24;fontColor=none;" parent="YA2wbJyzF00wrWX5y32e-27" vertex="1">
          <mxGeometry x="373" y="184" width="120" height="30" as="geometry" />
        </mxCell>
        <mxCell id="YA2wbJyzF00wrWX5y32e-40" value="&lt;font style=&quot;font-size: 16px&quot;&gt;PIECE 6&lt;/font&gt;" style="rounded=0;whiteSpace=wrap;html=1;sketch=0;fontSize=24;fontColor=none;" parent="YA2wbJyzF00wrWX5y32e-27" vertex="1">
          <mxGeometry x="373" y="224" width="120" height="30" as="geometry" />
        </mxCell>
        <mxCell id="PJ1qup9xhohrxMHTWOED-2" value="&lt;font style=&quot;font-size: 28px;&quot;&gt;...&lt;/font&gt;" style="text;html=1;align=center;verticalAlign=middle;resizable=0;points=[];autosize=1;strokeColor=none;fillColor=none;fontColor=#000000;" vertex="1" parent="YA2wbJyzF00wrWX5y32e-27">
          <mxGeometry x="210" y="190" width="41" height="46" as="geometry" />
        </mxCell>
        <mxCell id="PJ1qup9xhohrxMHTWOED-3" value="&lt;font style=&quot;font-size: 28px;&quot;&gt;...&lt;/font&gt;" style="text;html=1;align=center;verticalAlign=middle;resizable=0;points=[];autosize=1;strokeColor=none;fillColor=none;fontColor=#000000;" vertex="1" parent="YA2wbJyzF00wrWX5y32e-27">
          <mxGeometry x="544" y="188" width="41" height="46" as="geometry" />
        </mxCell>
        <mxCell id="YA2wbJyzF00wrWX5y32e-28" value="Depanel" style="text;html=1;strokeColor=none;fillColor=none;align=center;verticalAlign=middle;whiteSpace=wrap;rounded=0;fontSize=23;" parent="wUC67vCHg1ev2IUdutJq-1" vertex="1">
          <mxGeometry x="447" y="602" width="60" height="30" as="geometry" />
        </mxCell>
        <mxCell id="YA2wbJyzF00wrWX5y32e-41" value="" style="endArrow=classic;html=1;rounded=0;fontSize=23;strokeWidth=3;entryX=0.565;entryY=-0.014;entryDx=0;entryDy=0;entryPerimeter=0;" parent="wUC67vCHg1ev2IUdutJq-1" target="YA2wbJyzF00wrWX5y32e-28" edge="1">
          <mxGeometry width="50" height="50" relative="1" as="geometry">
            <mxPoint x="481" y="546" as="sourcePoint" />
            <mxPoint x="479" y="602" as="targetPoint" />
          </mxGeometry>
        </mxCell>
        <mxCell id="PJ1qup9xhohrxMHTWOED-9" value="Work Order A" style="swimlane;fontSize=16;" vertex="1" parent="wUC67vCHg1ev2IUdutJq-1">
          <mxGeometry x="966" y="226" width="425" height="296" as="geometry">
            <mxRectangle x="150" y="236" width="138" height="31" as="alternateBounds" />
          </mxGeometry>
        </mxCell>
        <mxCell id="PJ1qup9xhohrxMHTWOED-7" value="Quantity : 100" style="text;html=1;strokeColor=none;fillColor=none;align=center;verticalAlign=middle;whiteSpace=wrap;rounded=0;fontSize=28;fontColor=#000000;" vertex="1" parent="PJ1qup9xhohrxMHTWOED-9">
          <mxGeometry x="109" y="129" width="222" height="25" as="geometry" />
        </mxCell>
        <mxCell id="PJ1qup9xhohrxMHTWOED-12" value="SMT" style="text;html=1;strokeColor=none;fillColor=none;align=center;verticalAlign=middle;whiteSpace=wrap;rounded=0;fontSize=23;" vertex="1" parent="wUC67vCHg1ev2IUdutJq-1">
          <mxGeometry x="1152" y="186" width="60" height="30" as="geometry" />
        </mxCell>
        <mxCell id="PJ1qup9xhohrxMHTWOED-13" value="Work Order A" style="swimlane;fontSize=16;" vertex="1" parent="wUC67vCHg1ev2IUdutJq-1">
          <mxGeometry x="966" y="638" width="425" height="296" as="geometry">
            <mxRectangle x="150" y="236" width="138" height="31" as="alternateBounds" />
          </mxGeometry>
        </mxCell>
        <mxCell id="PJ1qup9xhohrxMHTWOED-30" value="Quantity : 100" style="text;html=1;strokeColor=none;fillColor=none;align=center;verticalAlign=middle;whiteSpace=wrap;rounded=0;fontSize=28;fontColor=#000000;" vertex="1" parent="PJ1qup9xhohrxMHTWOED-13">
          <mxGeometry x="113" y="158" width="222" height="25" as="geometry" />
        </mxCell>
        <mxCell id="PJ1qup9xhohrxMHTWOED-28" value="Depanel" style="text;html=1;strokeColor=none;fillColor=none;align=center;verticalAlign=middle;whiteSpace=wrap;rounded=0;fontSize=23;" vertex="1" parent="wUC67vCHg1ev2IUdutJq-1">
          <mxGeometry x="1148.5" y="596" width="60" height="30" as="geometry" />
        </mxCell>
        <mxCell id="PJ1qup9xhohrxMHTWOED-29" value="" style="endArrow=classic;html=1;rounded=0;fontSize=23;strokeWidth=3;entryX=0.565;entryY=-0.014;entryDx=0;entryDy=0;entryPerimeter=0;" edge="1" parent="wUC67vCHg1ev2IUdutJq-1" target="PJ1qup9xhohrxMHTWOED-28">
          <mxGeometry width="50" height="50" relative="1" as="geometry">
            <mxPoint x="1182.5" y="540" as="sourcePoint" />
            <mxPoint x="1180.5" y="596" as="targetPoint" />
          </mxGeometry>
        </mxCell>
      </root>
    </mxGraphModel>
  </diagram>
  <diagram id="6zKsS3cFAThxjq8PJFFE" name="Integration">
    <mxGraphModel dx="1422" dy="790" grid="1" gridSize="10" guides="1" tooltips="1" connect="1" arrows="1" fold="1" page="1" pageScale="1" pageWidth="850" pageHeight="1100" math="0" shadow="0">
      <root>
        <mxCell id="0" />
        <mxCell id="1" parent="0" />
        <mxCell id="8txxCejGeRvr1-WECaUE-2" value="EWO" style="rounded=0;whiteSpace=wrap;html=1;" vertex="1" parent="1">
          <mxGeometry x="80" y="100" width="120" height="60" as="geometry" />
        </mxCell>
        <mxCell id="8txxCejGeRvr1-WECaUE-3" value="MES" style="rounded=0;whiteSpace=wrap;html=1;" vertex="1" parent="1">
          <mxGeometry x="220" y="100" width="120" height="60" as="geometry" />
        </mxCell>
        <mxCell id="8txxCejGeRvr1-WECaUE-4" value="GPS" style="rounded=0;whiteSpace=wrap;html=1;" vertex="1" parent="1">
          <mxGeometry x="220" y="260" width="120" height="60" as="geometry" />
        </mxCell>
        <mxCell id="8txxCejGeRvr1-WECaUE-5" value="EMR" style="rounded=0;whiteSpace=wrap;html=1;" vertex="1" parent="1">
          <mxGeometry x="80" y="180" width="120" height="60" as="geometry" />
        </mxCell>
        <mxCell id="8txxCejGeRvr1-WECaUE-6" value="MIVS" style="rounded=0;whiteSpace=wrap;html=1;" vertex="1" parent="1">
          <mxGeometry x="220" y="180" width="120" height="60" as="geometry" />
        </mxCell>
        <mxCell id="8txxCejGeRvr1-WECaUE-7" value="RMA Control" style="rounded=0;whiteSpace=wrap;html=1;" vertex="1" parent="1">
          <mxGeometry x="80" y="260" width="120" height="60" as="geometry" />
        </mxCell>
        <mxCell id="8txxCejGeRvr1-WECaUE-8" value="" style="rounded=0;whiteSpace=wrap;html=1;" vertex="1" parent="1">
          <mxGeometry x="80" y="350" width="260" height="220" as="geometry" />
        </mxCell>
      </root>
    </mxGraphModel>
  </diagram>
</mxfile>
